<?xml version="1.0" encoding="utf-8"?>
<!-- Generator: Adobe Illustrator 19.0.0, SVG Export Plug-In . SVG Version: 6.00 Build 0)  -->
<svg version="1.1" id="Layer_1" xmlns="http://www.w3.org/2000/svg" xmlns:xlink="http://www.w3.org/1999/xlink" x="0px" y="0px"
	 viewBox="0 0 96 96" style="enable-background:new 0 0 96 96;" xml:space="preserve">
<style type="text/css">
	.st0{fill:#333333;}
</style>
<g id="XMLID_2_">
	<path id="XMLID_7_" class="st0" d="M29.3,63.4c0-0.6-0.2-1.1-0.7-1.5c-0.4-0.4-1-0.7-1.5-0.7c-0.6,0-1.1,0.2-1.6,0.7
		c-0.4,0.4-0.6,1-0.6,1.5c0,0.6,0.2,1.1,0.6,1.6c0.4,0.4,0.9,0.6,1.6,0.6c0.6,0,1.1-0.2,1.5-0.6C29.1,64.5,29.3,64,29.3,63.4z
		 M34.8,45.8v22c0,0.6-0.2,1.1-0.7,1.5c-0.4,0.4-1,0.7-1.5,0.7h-9.9c-0.6,0-1.1-0.2-1.5-0.7c-0.4-0.4-0.7-1-0.7-1.5v-22
		c0-0.6,0.2-1.1,0.7-1.5c0.4-0.4,1-0.7,1.5-0.7h9.9c0.6,0,1.1,0.2,1.5,0.7C34.6,44.7,34.8,45.2,34.8,45.8z M75.5,45.8
		c0,2-0.6,3.7-1.9,5.1c0.3,1,0.5,1.9,0.5,2.6c0.1,1.7-0.4,3.3-1.5,4.7c0.4,1.3,0.4,2.6,0,4c-0.3,1.3-1,2.4-1.9,3.2
		c0.2,2.6-0.4,4.6-1.7,6.2c-1.5,1.7-3.7,2.6-6.8,2.7h-4.4c-1.5,0-3.2-0.2-5-0.5c-1.8-0.4-3.2-0.7-4.2-1c-1-0.3-2.4-0.8-4.1-1.4
		c-2.8-1-4.6-1.5-5.4-1.5c-0.6,0-1.1-0.2-1.5-0.7S37,68.4,37,67.8v-22c0-0.6,0.2-1.1,0.6-1.5c0.4-0.4,0.9-0.7,1.5-0.7
		c0.5,0,1.4-0.7,2.6-2c1.2-1.3,2.3-2.7,3.5-4.2c1.6-2,2.7-3.4,3.5-4.1c0.4-0.4,0.8-1,1.1-1.6c0.3-0.7,0.5-1.2,0.6-1.7
		s0.3-1.1,0.5-2.1c0.2-0.9,0.3-1.6,0.4-2.1s0.3-1.1,0.7-1.8c0.3-0.7,0.7-1.3,1.2-1.7c0.4-0.4,1-0.7,1.5-0.7c1.1,0,2,0.1,2.8,0.4
		c0.8,0.2,1.5,0.5,2.1,0.9c0.5,0.4,1,0.8,1.4,1.4c0.4,0.6,0.7,1.1,0.8,1.5c0.2,0.5,0.3,1,0.4,1.7c0.1,0.7,0.2,1.2,0.2,1.5
		s0,0.8,0,1.3c0,0.9-0.1,1.7-0.3,2.6s-0.4,1.6-0.7,2.1s-0.5,1.1-0.9,1.9c-0.1,0.1-0.2,0.3-0.3,0.6c-0.2,0.3-0.3,0.5-0.4,0.8
		c-0.1,0.2-0.2,0.5-0.3,0.8h9.5c1.8,0,3.3,0.7,4.6,2C74.8,42.5,75.5,44,75.5,45.8z"/>
</g>
</svg>
